<svg xmlns="http://www.w3.org/2000/svg" version="1.1" xmlns:xlink="http://www.w3.org/1999/xlink" xmlns:svgjs="http://svgjs.dev/svgjs" width="400" height="1000" preserveAspectRatio="none" viewBox="0 0 400 1000"><g mask="url(&quot;#SvgjsMask1129&quot;)" fill="none"><rect width="400" height="1000" x="0" y="0" fill="rgba(255, 255, 255, 1)"></rect><path d="M0 0L68.26 0L0 346.4z" fill="rgba(255, 255, 255, .1)"></path><path d="M0 346.4L68.26 0L99.29 0L0 619.31z" fill="rgba(255, 255, 255, .075)"></path><path d="M0 619.31L99.29 0L144.76 0L0 736.18z" fill="rgba(255, 255, 255, .05)"></path><path d="M0 736.18L144.76 0L172.31 0L0 853.29z" fill="rgba(255, 255, 255, .025)"></path><path d="M400 1000L385.59 1000L400 948.9z" fill="rgba(0, 0, 0, .1)"></path><path d="M400 948.9L385.59 1000L193.15999999999997 1000L400 558.97z" fill="rgba(0, 0, 0, .075)"></path><path d="M400 558.97L193.16 1000L175.60999999999999 1000L400 431.94000000000005z" fill="rgba(0, 0, 0, .05)"></path><path d="M400 431.93999999999994L175.60999999999999 1000L167.95 1000L400 133.11999999999995z" fill="rgba(0, 0, 0, .025)"></path></g><defs><mask id="SvgjsMask1129"><rect width="400" height="1000" fill="#ffffff"></rect></mask></defs></svg>